# xmcd
#
# Track frame offsets:
#	150
#	16448
#	43347
#	60755
#	80767
#	103434
#	131659
#	170017
#	210750
#	235603
#	267219
#
# Disc length: 3823 seconds
#
# Revision: 1
# Processed by: cddbd v1.5.2PL0 Copyright (c) Steve Scherf et al.
# Submitted via: audiograbber 1.83.01
#
DISCID=920eed0b
DTITLE=Eric Clapton - One More Car, One More Rider CD1 DTS
DYEAR=2002
DGENRE=Blues
TTITLE0=Key to the Highway
TTITLE1=Reptile
TTITLE2=Got You On My Mind
TTITLE3=Tears in Heaven
TTITLE4=Bell Bottom Blues
TTITLE5=Change the World
TTITLE6=My Father's Eyes
TTITLE7=River of Tears
TTITLE8=Going Down Slow
TTITLE9=She's Gone
TTITLE10=I Want a Little Gir
EXTD=downloaded disc image
EXTT0=
EXTT1=
EXTT2=
EXTT3=
EXTT4=
EXTT5=
EXTT6=
EXTT7=
EXTT8=
EXTT9=
EXTT10=
PLAYORDER=
